<?xml version="1.0" encoding="utf-8" standalone="no"?>
<!DOCTYPE svg PUBLIC "-//W3C//DTD SVG 1.1//EN"
  "http://www.w3.org/Graphics/SVG/1.1/DTD/svg11.dtd">
<svg xmlns:xlink="http://www.w3.org/1999/xlink" width="360pt" height="216pt" viewBox="0 0 360 216" xmlns="http://www.w3.org/2000/svg" version="1.1">
 <metadata>
  <rdf:RDF xmlns:dc="http://purl.org/dc/elements/1.1/" xmlns:cc="http://creativecommons.org/ns#" xmlns:rdf="http://www.w3.org/1999/02/22-rdf-syntax-ns#">
   <cc:Work>
    <dc:type rdf:resource="http://purl.org/dc/dcmitype/StillImage"/>
    <dc:date>2025-06-09T15:07:17.455164</dc:date>
    <dc:format>image/svg+xml</dc:format>
    <dc:creator>
     <cc:Agent>
      <dc:title>Matplotlib v3.10.1, https://matplotlib.org/</dc:title>
     </cc:Agent>
    </dc:creator>
   </cc:Work>
  </rdf:RDF>
 </metadata>
 <defs>
  <style type="text/css">*{stroke-linejoin: round; stroke-linecap: butt}</style>
 </defs>
 <g id="figure_1">
  <g id="patch_1">
   <path d="M 0 216 
L 360 216 
L 360 0 
L 0 0 
z
" style="fill: #ffffff"/>
  </g>
  <g id="axes_1">
   <g id="patch_2">
    <path d="M 31.949905 166.008854 
L 344.448 166.008854 
L 344.448 15.552 
L 31.949905 15.552 
z
" style="fill: #ffffff"/>
   </g>
   <g id="matplotlib.axis_1">
    <g id="xtick_1">
     <g id="line2d_1">
      <defs>
       <path id="m6d6f5edb19" d="M 0 0 
L 0 4.8 
" style="stroke: #262626"/>
      </defs>
      <g>
       <use xlink:href="#m6d6f5edb19" x="46.154364" y="166.008854" style="fill: #262626; stroke: #262626"/>
      </g>
     </g>
     <g id="text_1">
      <!-- $\mathdefault{−1.0}$ -->
      <g style="fill: #262626" transform="translate(34.891021 181.919201) scale(0.11 -0.11)">
       <defs>
        <path id="CMSY10-0" d="M 4218 1472 
C 4326 1472 4442 1472 4442 1600 
C 4442 1728 4326 1728 4218 1728 
L 755 1728 
C 646 1728 531 1728 531 1600 
C 531 1472 646 1472 755 1472 
L 4218 1472 
z
" transform="scale(0.015625)"/>
        <path id="CMR17-31" d="M 1702 4058 
C 1702 4192 1696 4192 1606 4192 
C 1357 3916 979 3827 621 3827 
C 602 3827 570 3827 563 3808 
C 557 3795 557 3782 557 3648 
C 755 3648 1088 3686 1344 3839 
L 1344 461 
C 1344 236 1331 160 781 160 
L 589 160 
L 589 0 
C 896 0 1216 0 1523 0 
C 1830 0 2150 0 2458 0 
L 2458 160 
L 2266 160 
C 1715 160 1702 230 1702 458 
L 1702 4058 
z
" transform="scale(0.015625)"/>
        <path id="CMMI12-3a" d="M 1178 307 
C 1178 492 1024 619 870 619 
C 685 619 557 466 557 313 
C 557 128 710 0 864 0 
C 1050 0 1178 153 1178 307 
z
" transform="scale(0.015625)"/>
        <path id="CMR17-30" d="M 2688 2025 
C 2688 2416 2682 3080 2413 3591 
C 2176 4039 1798 4198 1466 4198 
C 1158 4198 768 4058 525 3597 
C 269 3118 243 2524 243 2025 
C 243 1661 250 1106 448 619 
C 723 -39 1216 -128 1466 -128 
C 1760 -128 2208 -7 2470 600 
C 2662 1042 2688 1559 2688 2025 
z
M 1466 -26 
C 1056 -26 813 325 723 812 
C 653 1188 653 1738 653 2096 
C 653 2588 653 2997 736 3387 
C 858 3929 1216 4096 1466 4096 
C 1728 4096 2067 3923 2189 3400 
C 2272 3036 2278 2607 2278 2096 
C 2278 1680 2278 1169 2202 792 
C 2067 95 1690 -26 1466 -26 
z
" transform="scale(0.015625)"/>
       </defs>
       <use xlink:href="#CMSY10-0" transform="scale(0.996264)"/>
       <use xlink:href="#CMR17-31" transform="translate(77.487468 0) scale(0.996264)"/>
       <use xlink:href="#CMMI12-3a" transform="translate(123.177945 0) scale(0.996264)"/>
       <use xlink:href="#CMR17-30" transform="translate(150.275122 0) scale(0.996264)"/>
      </g>
     </g>
    </g>
    <g id="xtick_2">
     <g id="line2d_2">
      <g>
       <use xlink:href="#m6d6f5edb19" x="117.176658" y="166.008854" style="fill: #262626; stroke: #262626"/>
      </g>
     </g>
     <g id="text_2">
      <!-- $\mathdefault{−0.5}$ -->
      <g style="fill: #262626" transform="translate(105.913315 181.919201) scale(0.11 -0.11)">
       <defs>
        <path id="CMR17-35" d="M 730 3692 
C 794 3666 1056 3584 1325 3584 
C 1920 3584 2246 3911 2432 4100 
C 2432 4157 2432 4192 2394 4192 
C 2387 4192 2374 4192 2323 4163 
C 2099 4058 1837 3973 1517 3973 
C 1325 3973 1037 3999 723 4139 
C 653 4171 640 4171 634 4171 
C 602 4171 595 4164 595 4037 
L 595 2203 
C 595 2089 595 2057 659 2057 
C 691 2057 704 2070 736 2114 
C 941 2401 1222 2522 1542 2522 
C 1766 2522 2246 2382 2246 1289 
C 2246 1085 2246 715 2054 421 
C 1894 159 1645 25 1370 25 
C 947 25 518 320 403 814 
C 429 807 480 795 506 795 
C 589 795 749 840 749 1038 
C 749 1210 627 1280 506 1280 
C 358 1280 262 1190 262 1011 
C 262 454 704 -128 1382 -128 
C 2042 -128 2669 440 2669 1264 
C 2669 2030 2170 2624 1549 2624 
C 1222 2624 947 2503 730 2274 
L 730 3692 
z
" transform="scale(0.015625)"/>
       </defs>
       <use xlink:href="#CMSY10-0" transform="scale(0.996264)"/>
       <use xlink:href="#CMR17-30" transform="translate(77.487468 0) scale(0.996264)"/>
       <use xlink:href="#CMMI12-3a" transform="translate(123.177945 0) scale(0.996264)"/>
       <use xlink:href="#CMR17-35" transform="translate(150.275122 0) scale(0.996264)"/>
      </g>
     </g>
    </g>
    <g id="xtick_3">
     <g id="line2d_3">
      <g>
       <use xlink:href="#m6d6f5edb19" x="188.198952" y="166.008854" style="fill: #262626; stroke: #262626"/>
      </g>
     </g>
     <g id="text_3">
      <!-- $\mathdefault{0.0}$ -->
      <g style="fill: #262626" transform="translate(181.197414 181.919201) scale(0.11 -0.11)">
       <use xlink:href="#CMR17-30" transform="scale(0.996264)"/>
       <use xlink:href="#CMMI12-3a" transform="translate(45.690477 0) scale(0.996264)"/>
       <use xlink:href="#CMR17-30" transform="translate(72.787654 0) scale(0.996264)"/>
      </g>
     </g>
    </g>
    <g id="xtick_4">
     <g id="line2d_4">
      <g>
       <use xlink:href="#m6d6f5edb19" x="259.221247" y="166.008854" style="fill: #262626; stroke: #262626"/>
      </g>
     </g>
     <g id="text_4">
      <!-- $\mathdefault{0.5}$ -->
      <g style="fill: #262626" transform="translate(252.219709 181.919201) scale(0.11 -0.11)">
       <use xlink:href="#CMR17-30" transform="scale(0.996264)"/>
       <use xlink:href="#CMMI12-3a" transform="translate(45.690477 0) scale(0.996264)"/>
       <use xlink:href="#CMR17-35" transform="translate(72.787654 0) scale(0.996264)"/>
      </g>
     </g>
    </g>
    <g id="xtick_5">
     <g id="line2d_5">
      <g>
       <use xlink:href="#m6d6f5edb19" x="330.243541" y="166.008854" style="fill: #262626; stroke: #262626"/>
      </g>
     </g>
     <g id="text_5">
      <!-- $\mathdefault{1.0}$ -->
      <g style="fill: #262626" transform="translate(323.242003 181.919201) scale(0.11 -0.11)">
       <use xlink:href="#CMR17-31" transform="scale(0.996264)"/>
       <use xlink:href="#CMMI12-3a" transform="translate(45.690477 0) scale(0.996264)"/>
       <use xlink:href="#CMR17-30" transform="translate(72.787654 0) scale(0.996264)"/>
      </g>
     </g>
    </g>
    <g id="text_6">
     <!-- Scaled Data Value -->
     <g style="fill: #262626" transform="translate(133.290145 197.735972) scale(0.14 -0.14)">
      <defs>
       <path id="CMR17-53" d="M 2803 4290 
C 2803 4404 2797 4411 2758 4411 
C 2720 4411 2707 4385 2682 4328 
L 2490 3907 
C 2246 4257 1875 4416 1472 4416 
C 819 4416 294 3901 294 3253 
C 294 3056 339 2776 557 2510 
C 794 2218 1018 2167 1530 2033 
C 1722 1982 2042 1899 2106 1874 
C 2470 1722 2662 1341 2662 985 
C 2662 527 2336 38 1779 38 
C 1094 38 454 419 410 1311 
C 403 1413 397 1419 352 1419 
C 301 1419 294 1413 294 1285 
L 294 -1 
C 294 -115 301 -122 339 -122 
C 384 -122 397 -90 486 108 
C 493 127 493 140 614 381 
C 934 -39 1472 -128 1779 -128 
C 2477 -128 2970 451 2970 1124 
C 2970 1454 2848 1708 2778 1823 
C 2509 2230 2221 2306 1914 2382 
C 1869 2402 1856 2402 1498 2490 
C 1152 2579 1005 2624 845 2796 
C 666 2992 602 3196 602 3399 
C 602 3812 934 4263 1478 4263 
C 2157 4263 2579 3786 2675 2993 
C 2694 2878 2701 2872 2746 2872 
C 2803 2872 2803 2891 2803 2999 
L 2803 4290 
z
" transform="scale(0.015625)"/>
       <path id="CMR17-63" d="M 2234 2240 
C 2112 2240 1933 2240 1933 2017 
C 1933 1838 2080 1787 2163 1787 
C 2208 1787 2394 1807 2394 2024 
C 2394 2467 1958 2803 1466 2803 
C 787 2803 211 2178 211 1363 
C 211 516 813 -64 1466 -64 
C 2259 -64 2458 677 2458 748 
C 2458 774 2451 793 2406 793 
C 2362 793 2355 787 2330 703 
C 2163 180 1798 51 1523 51 
C 1114 51 621 427 621 1369 
C 621 2338 1094 2688 1472 2688 
C 1722 2688 2093 2573 2234 2240 
z
" transform="scale(0.015625)"/>
       <path id="CMR17-61" d="M 2304 1653 
C 2304 2072 2304 2294 2035 2543 
C 1798 2752 1523 2816 1306 2816 
C 800 2816 435 2407 435 1971 
C 435 1728 627 1728 666 1728 
C 749 1728 896 1778 896 1954 
C 896 2112 774 2181 666 2181 
C 640 2181 608 2174 589 2168 
C 723 2592 1069 2714 1293 2714 
C 1613 2714 1965 2429 1965 1885 
L 1965 1600 
C 1587 1600 1133 1549 774 1357 
C 371 1133 256 813 256 570 
C 256 77 832 -64 1171 -64 
C 1523 -64 1850 139 1990 511 
C 2003 233 2182 -18 2464 -18 
C 2598 -18 2938 70 2938 567 
L 2938 920 
L 2822 920 
L 2822 562 
C 2822 178 2650 128 2566 128 
C 2304 128 2304 458 2304 738 
L 2304 1653 
z
M 1965 870 
C 1965 317 1568 38 1216 38 
C 896 38 646 275 646 570 
C 646 761 730 1100 1101 1305 
C 1408 1478 1760 1504 1965 1504 
L 1965 870 
z
" transform="scale(0.015625)"/>
       <path id="CMR17-6c" d="M 979 4396 
L 218 4326 
L 218 4160 
C 595 4160 653 4122 653 3817 
L 653 426 
C 653 184 627 153 218 153 
L 218 -13 
C 371 0 653 0 813 0 
C 979 0 1261 0 1414 -13 
L 1414 153 
C 1005 153 979 178 979 426 
L 979 4396 
z
" transform="scale(0.015625)"/>
       <path id="CMR17-65" d="M 2438 1472 
C 2464 1498 2464 1511 2464 1576 
C 2464 2238 2118 2816 1389 2816 
C 710 2816 173 2169 173 1383 
C 173 551 781 -64 1459 -64 
C 2176 -64 2458 607 2458 740 
C 2458 784 2419 784 2406 784 
C 2362 784 2355 771 2330 696 
C 2189 265 1837 51 1504 51 
C 1229 51 954 203 781 480 
C 582 803 582 1176 582 1472 
L 2438 1472 
z
M 589 1568 
C 634 2505 1126 2714 1382 2714 
C 1818 2714 2112 2297 2118 1568 
L 589 1568 
z
" transform="scale(0.015625)"/>
       <path id="CMR17-64" d="M 1869 4326 
L 1869 4160 
C 2246 4160 2304 4122 2304 3820 
L 2304 2345 
C 2278 2377 2016 2790 1498 2790 
C 845 2790 211 2208 211 1364 
C 211 525 806 -64 1434 -64 
C 1978 -64 2259 337 2291 380 
L 2291 -63 
L 3066 -63 
L 3066 128 
C 2688 128 2630 166 2630 473 
L 2630 4396 
L 1869 4326 
z
M 2291 755 
C 2291 563 2176 390 2029 262 
C 1811 70 1594 38 1472 38 
C 1286 38 621 134 621 1356 
C 621 2612 1363 2688 1530 2688 
C 1824 2688 2061 2522 2208 2291 
C 2291 2157 2291 2138 2291 2023 
L 2291 755 
z
" transform="scale(0.015625)"/>
       <path id="CMR17-44" d="M 333 4352 
L 333 4186 
C 774 4186 845 4186 845 3900 
L 845 452 
C 845 166 774 166 333 166 
L 333 0 
L 2368 0 
C 3398 0 4224 943 4224 2141 
C 4224 3346 3411 4352 2368 4352 
L 333 4352 
z
M 1523 166 
C 1267 166 1254 197 1254 414 
L 1254 3938 
C 1254 4155 1267 4186 1523 4186 
L 2240 4186 
C 2771 4186 3750 3874 3750 2141 
C 3750 1242 3488 879 3366 707 
C 3213 510 2848 166 2240 166 
L 1523 166 
z
" transform="scale(0.015625)"/>
       <path id="CMR17-74" d="M 966 2560 
L 1862 2560 
L 1862 2725 
L 966 2725 
L 966 3904 
L 851 3904 
C 838 3245 614 2668 70 2668 
L 70 2560 
L 627 2560 
L 627 771 
C 627 650 627 -64 1370 -64 
C 1747 -64 1965 306 1965 777 
L 1965 1140 
L 1850 1140 
L 1850 783 
C 1850 344 1677 51 1408 51 
C 1222 51 966 178 966 758 
L 966 2560 
z
" transform="scale(0.015625)"/>
       <path id="CMR17-56" d="M 3776 3745 
C 3834 3886 3936 4160 4365 4160 
L 4365 4332 
C 4218 4319 4051 4319 3891 4319 
C 3738 4319 3475 4319 3328 4332 
L 3328 4160 
C 3648 4160 3661 3936 3661 3898 
C 3661 3827 3642 3783 3622 3732 
L 2362 446 
L 1043 3886 
C 1024 3931 1011 3963 1011 3994 
C 1011 4160 1267 4160 1402 4160 
L 1402 4319 
C 1197 4319 896 4319 685 4319 
C 518 4319 218 4319 64 4332 
L 64 4160 
C 435 4160 506 4135 582 3931 
L 2106 -26 
C 2138 -115 2144 -128 2214 -128 
C 2285 -128 2291 -115 2323 -26 
L 3776 3745 
z
" transform="scale(0.015625)"/>
       <path id="CMR17-75" d="M 1882 2693 
L 1882 2528 
C 2259 2528 2317 2489 2317 2186 
L 2317 1032 
C 2317 500 2029 38 1555 38 
C 1030 38 986 348 986 678 
L 986 2763 
L 211 2693 
L 211 2528 
C 467 2528 640 2528 646 2274 
L 646 1058 
C 646 633 646 361 813 183 
C 896 101 1056 -64 1517 -64 
C 2061 -64 2272 377 2323 506 
L 2330 506 
L 2330 -63 
L 3091 -63 
L 3091 128 
C 2714 128 2656 166 2656 473 
L 2656 2763 
L 1882 2693 
z
" transform="scale(0.015625)"/>
      </defs>
      <use xlink:href="#CMR17-53" transform="scale(0.996264)"/>
      <use xlink:href="#CMR17-63" transform="translate(50.89537 0) scale(0.996264)"/>
      <use xlink:href="#CMR17-61" transform="translate(91.38103 0) scale(0.996264)"/>
      <use xlink:href="#CMR17-6c" transform="translate(137.071507 0) scale(0.996264)"/>
      <use xlink:href="#CMR17-65" transform="translate(161.942566 0) scale(0.996264)"/>
      <use xlink:href="#CMR17-64" transform="translate(202.428226 0) scale(0.996264)"/>
      <use xlink:href="#CMR17-44" transform="translate(283.399562 0) scale(0.996264)"/>
      <use xlink:href="#CMR17-61" transform="translate(353.793118 0) scale(0.996264)"/>
      <use xlink:href="#CMR17-74" transform="translate(399.483595 0) scale(0.996264)"/>
      <use xlink:href="#CMR17-61" transform="translate(434.764363 0) scale(0.996264)"/>
      <use xlink:href="#CMR17-56" transform="translate(510.530807 0) scale(0.996264)"/>
      <use xlink:href="#CMR17-61" transform="translate(571.795981 0) scale(0.996264)"/>
      <use xlink:href="#CMR17-6c" transform="translate(617.486458 0) scale(0.996264)"/>
      <use xlink:href="#CMR17-75" transform="translate(642.357517 0) scale(0.996264)"/>
      <use xlink:href="#CMR17-65" transform="translate(693.252887 0) scale(0.996264)"/>
     </g>
    </g>
   </g>
   <g id="matplotlib.axis_2">
    <g id="ytick_1"/>
    <g id="ytick_2"/>
    <g id="ytick_3"/>
    <g id="ytick_4"/>
    <g id="ytick_5"/>
    <g id="ytick_6"/>
    <g id="text_7">
     <!-- Density -->
     <g style="fill: #262626" transform="translate(25.237876 113.483947) rotate(-90) scale(0.14 -0.14)">
      <defs>
       <path id="CMR17-6e" d="M 2656 1933 
C 2656 2259 2592 2790 1837 2790 
C 1331 2790 1069 2400 973 2144 
L 966 2144 
L 966 2790 
L 211 2720 
L 211 2554 
C 589 2554 646 2515 646 2208 
L 646 428 
C 646 184 621 153 211 153 
L 211 -13 
C 365 0 646 0 813 0 
C 979 0 1267 0 1421 -13 
L 1421 153 
C 1011 153 986 178 986 428 
L 986 1658 
C 986 2247 1344 2688 1792 2688 
C 2266 2688 2317 2266 2317 1958 
L 2317 428 
C 2317 184 2291 153 1882 153 
L 1882 -13 
C 2035 0 2317 0 2483 0 
C 2650 0 2938 0 3091 -13 
L 3091 153 
C 2682 153 2656 178 2656 428 
L 2656 1933 
z
" transform="scale(0.015625)"/>
       <path id="CMR17-73" d="M 1978 2697 
C 1978 2813 1971 2819 1933 2819 
C 1907 2819 1901 2813 1824 2717 
C 1805 2691 1747 2626 1728 2601 
C 1523 2819 1235 2819 1126 2819 
C 416 2819 160 2447 160 2076 
C 160 1498 813 1365 998 1325 
C 1402 1243 1542 1217 1677 1101 
C 1760 1025 1901 884 1901 654 
C 1901 384 1747 38 1158 38 
C 602 38 403 460 288 1021 
C 269 1110 269 1117 218 1117 
C 166 1117 160 1110 160 983 
L 160 63 
C 160 -51 166 -58 205 -58 
C 237 -58 243 -51 275 0 
C 314 57 410 211 448 276 
C 576 103 800 -64 1158 -64 
C 1792 -64 2131 283 2131 784 
C 2131 1112 1958 1285 1875 1362 
C 1683 1561 1459 1606 1190 1657 
C 838 1735 390 1825 390 2217 
C 390 2383 480 2737 1126 2737 
C 1811 2737 1850 2094 1862 1888 
C 1869 1856 1901 1849 1920 1849 
C 1978 1849 1978 1869 1978 1978 
L 1978 2697 
z
" transform="scale(0.015625)"/>
       <path id="CMR17-69" d="M 992 3909 
C 992 4049 877 4170 730 4170 
C 589 4170 467 4056 467 3909 
C 467 3769 582 3648 730 3648 
C 870 3648 992 3763 992 3909 
z
M 243 2706 
L 243 2541 
C 602 2541 653 2502 653 2197 
L 653 427 
C 653 184 627 153 218 153 
L 218 -13 
C 371 0 646 0 806 0 
C 960 0 1222 0 1370 -13 
L 1370 153 
C 992 153 979 191 979 420 
L 979 2776 
L 243 2706 
z
" transform="scale(0.015625)"/>
       <path id="CMR17-79" d="M 2496 2197 
C 2656 2586 2944 2586 3034 2586 
L 3034 2752 
C 2912 2752 2752 2752 2630 2752 
C 2496 2752 2285 2752 2157 2758 
L 2157 2592 
C 2400 2573 2406 2394 2406 2343 
C 2406 2280 2394 2248 2362 2171 
L 1664 449 
L 902 2306 
C 870 2382 870 2426 870 2433 
C 870 2573 1018 2586 1171 2586 
L 1171 2758 
C 1018 2752 742 2752 582 2752 
C 410 2752 205 2752 64 2758 
L 64 2586 
C 410 2586 448 2554 531 2350 
L 1485 15 
C 1197 -738 1030 -1178 627 -1178 
C 557 -1178 397 -1159 282 -1044 
C 429 -1031 493 -942 493 -833 
C 493 -725 416 -629 288 -629 
C 147 -629 77 -725 77 -840 
C 77 -1095 339 -1280 627 -1280 
C 998 -1280 1229 -922 1357 -604 
L 2496 2197 
z
" transform="scale(0.015625)"/>
      </defs>
      <use xlink:href="#CMR17-44" transform="scale(0.996264)"/>
      <use xlink:href="#CMR17-65" transform="translate(70.393556 0) scale(0.996264)"/>
      <use xlink:href="#CMR17-6e" transform="translate(110.879216 0) scale(0.996264)"/>
      <use xlink:href="#CMR17-73" transform="translate(161.774586 0) scale(0.996264)"/>
      <use xlink:href="#CMR17-69" transform="translate(197.575924 0) scale(0.996264)"/>
      <use xlink:href="#CMR17-74" transform="translate(222.446982 0) scale(0.996264)"/>
      <use xlink:href="#CMR17-79" transform="translate(255.125296 0) scale(0.996264)"/>
     </g>
    </g>
   </g>
   <g id="patch_3">
    <path d="M 46.158859 166.008854 
L 53.087637 166.008854 
L 53.087637 153.519476 
L 46.158859 153.519476 
z
" clip-path="url(#p362586a2bb)" style="fill: #1b9e77; stroke: #ffffff; stroke-width: 0.8; stroke-linejoin: miter"/>
   </g>
   <g id="patch_4">
    <path d="M 53.087637 166.008854 
L 60.016406 166.008854 
L 60.016406 150.5949 
L 53.087637 150.5949 
z
" clip-path="url(#p362586a2bb)" style="fill: #1b9e77; stroke: #ffffff; stroke-width: 0.8; stroke-linejoin: miter"/>
   </g>
   <g id="patch_5">
    <path d="M 60.016406 166.008854 
L 66.945184 166.008854 
L 66.945184 147.214857 
L 60.016406 147.214857 
z
" clip-path="url(#p362586a2bb)" style="fill: #1b9e77; stroke: #ffffff; stroke-width: 0.8; stroke-linejoin: miter"/>
   </g>
   <g id="patch_6">
    <path d="M 66.945184 166.008854 
L 73.873961 166.008854 
L 73.873961 142.456428 
L 66.945184 142.456428 
z
" clip-path="url(#p362586a2bb)" style="fill: #1b9e77; stroke: #ffffff; stroke-width: 0.8; stroke-linejoin: miter"/>
   </g>
   <g id="patch_7">
    <path d="M 73.873961 166.008854 
L 80.80273 166.008854 
L 80.80273 139.352062 
L 73.873961 139.352062 
z
" clip-path="url(#p362586a2bb)" style="fill: #1b9e77; stroke: #ffffff; stroke-width: 0.8; stroke-linejoin: miter"/>
   </g>
   <g id="patch_8">
    <path d="M 80.80273 166.008854 
L 87.731508 166.008854 
L 87.731508 132.603962 
L 80.80273 132.603962 
z
" clip-path="url(#p362586a2bb)" style="fill: #1b9e77; stroke: #ffffff; stroke-width: 0.8; stroke-linejoin: miter"/>
   </g>
   <g id="patch_9">
    <path d="M 87.731508 166.008854 
L 94.660286 166.008854 
L 94.660286 126.419203 
L 87.731508 126.419203 
z
" clip-path="url(#p362586a2bb)" style="fill: #1b9e77; stroke: #ffffff; stroke-width: 0.8; stroke-linejoin: miter"/>
   </g>
   <g id="patch_10">
    <path d="M 94.660286 166.008854 
L 101.589055 166.008854 
L 101.589055 119.251595 
L 94.660286 119.251595 
z
" clip-path="url(#p362586a2bb)" style="fill: #1b9e77; stroke: #ffffff; stroke-width: 0.8; stroke-linejoin: miter"/>
   </g>
   <g id="patch_11">
    <path d="M 101.589055 166.008854 
L 108.517832 166.008854 
L 108.517832 112.443565 
L 101.589055 112.443565 
z
" clip-path="url(#p362586a2bb)" style="fill: #1b9e77; stroke: #ffffff; stroke-width: 0.8; stroke-linejoin: miter"/>
   </g>
   <g id="patch_12">
    <path d="M 108.517832 166.008854 
L 115.44661 166.008854 
L 115.44661 103.705795 
L 108.517832 103.705795 
z
" clip-path="url(#p362586a2bb)" style="fill: #1b9e77; stroke: #ffffff; stroke-width: 0.8; stroke-linejoin: miter"/>
   </g>
   <g id="patch_13">
    <path d="M 115.44661 166.008854 
L 122.375383 166.008854 
L 122.375383 94.129007 
L 115.44661 94.129007 
z
" clip-path="url(#p362586a2bb)" style="fill: #1b9e77; stroke: #ffffff; stroke-width: 0.8; stroke-linejoin: miter"/>
   </g>
   <g id="patch_14">
    <path d="M 122.375383 166.008854 
L 129.304157 166.008854 
L 129.304157 84.995699 
L 122.375383 84.995699 
z
" clip-path="url(#p362586a2bb)" style="fill: #1b9e77; stroke: #ffffff; stroke-width: 0.8; stroke-linejoin: miter"/>
   </g>
   <g id="patch_15">
    <path d="M 129.304157 166.008854 
L 136.232934 166.008854 
L 136.232934 76.737368 
L 129.304157 76.737368 
z
" clip-path="url(#p362586a2bb)" style="fill: #1b9e77; stroke: #ffffff; stroke-width: 0.8; stroke-linejoin: miter"/>
   </g>
   <g id="patch_16">
    <path d="M 136.232934 166.008854 
L 143.161708 166.008854 
L 143.161708 63.528832 
L 136.232934 63.528832 
z
" clip-path="url(#p362586a2bb)" style="fill: #1b9e77; stroke: #ffffff; stroke-width: 0.8; stroke-linejoin: miter"/>
   </g>
   <g id="patch_17">
    <path d="M 143.161708 166.008854 
L 150.090481 166.008854 
L 150.090481 54.575314 
L 143.161708 54.575314 
z
" clip-path="url(#p362586a2bb)" style="fill: #1b9e77; stroke: #ffffff; stroke-width: 0.8; stroke-linejoin: miter"/>
   </g>
   <g id="patch_18">
    <path d="M 150.090481 166.008854 
L 157.019259 166.008854 
L 157.019259 47.323803 
L 150.090481 47.323803 
z
" clip-path="url(#p362586a2bb)" style="fill: #1b9e77; stroke: #ffffff; stroke-width: 0.8; stroke-linejoin: miter"/>
   </g>
   <g id="patch_19">
    <path d="M 157.019259 166.008854 
L 163.948032 166.008854 
L 163.948032 38.022693 
L 157.019259 38.022693 
z
" clip-path="url(#p362586a2bb)" style="fill: #1b9e77; stroke: #ffffff; stroke-width: 0.8; stroke-linejoin: miter"/>
   </g>
   <g id="patch_20">
    <path d="M 163.948032 166.008854 
L 170.876807 166.008854 
L 170.876807 32.688937 
L 163.948032 32.688937 
z
" clip-path="url(#p362586a2bb)" style="fill: #1b9e77; stroke: #ffffff; stroke-width: 0.8; stroke-linejoin: miter"/>
   </g>
   <g id="patch_21">
    <path d="M 170.876807 166.008854 
L 177.805583 166.008854 
L 177.805583 27.019574 
L 170.876807 27.019574 
z
" clip-path="url(#p362586a2bb)" style="fill: #1b9e77; stroke: #ffffff; stroke-width: 0.8; stroke-linejoin: miter"/>
   </g>
   <g id="patch_22">
    <path d="M 177.805583 166.008854 
L 184.734358 166.008854 
L 184.734358 22.716612 
L 177.805583 22.716612 
z
" clip-path="url(#p362586a2bb)" style="fill: #1b9e77; stroke: #ffffff; stroke-width: 0.8; stroke-linejoin: miter"/>
   </g>
   <g id="patch_23">
    <path d="M 184.734358 166.008854 
L 191.663132 166.008854 
L 191.663132 26.036725 
L 184.734358 26.036725 
z
" clip-path="url(#p362586a2bb)" style="fill: #1b9e77; stroke: #ffffff; stroke-width: 0.8; stroke-linejoin: miter"/>
   </g>
   <g id="patch_24">
    <path d="M 191.663132 166.008854 
L 198.591907 166.008854 
L 198.591907 23.795349 
L 191.663132 23.795349 
z
" clip-path="url(#p362586a2bb)" style="fill: #1b9e77; stroke: #ffffff; stroke-width: 0.8; stroke-linejoin: miter"/>
   </g>
   <g id="patch_25">
    <path d="M 198.591907 166.008854 
L 205.520683 166.008854 
L 205.520683 24.92203 
L 198.591907 24.92203 
z
" clip-path="url(#p362586a2bb)" style="fill: #1b9e77; stroke: #ffffff; stroke-width: 0.8; stroke-linejoin: miter"/>
   </g>
   <g id="patch_26">
    <path d="M 205.520683 166.008854 
L 212.449458 166.008854 
L 212.449458 33.6598 
L 205.520683 33.6598 
z
" clip-path="url(#p362586a2bb)" style="fill: #1b9e77; stroke: #ffffff; stroke-width: 0.8; stroke-linejoin: miter"/>
   </g>
   <g id="patch_27">
    <path d="M 212.449458 166.008854 
L 219.378231 166.008854 
L 219.378231 39.652784 
L 212.449458 39.652784 
z
" clip-path="url(#p362586a2bb)" style="fill: #1b9e77; stroke: #ffffff; stroke-width: 0.8; stroke-linejoin: miter"/>
   </g>
   <g id="patch_28">
    <path d="M 219.378231 166.008854 
L 226.307009 166.008854 
L 226.307009 46.964224 
L 219.378231 46.964224 
z
" clip-path="url(#p362586a2bb)" style="fill: #1b9e77; stroke: #ffffff; stroke-width: 0.8; stroke-linejoin: miter"/>
   </g>
   <g id="patch_29">
    <path d="M 226.307009 166.008854 
L 233.235782 166.008854 
L 233.235782 55.83384 
L 226.307009 55.83384 
z
" clip-path="url(#p362586a2bb)" style="fill: #1b9e77; stroke: #ffffff; stroke-width: 0.8; stroke-linejoin: miter"/>
   </g>
   <g id="patch_30">
    <path d="M 233.235782 166.008854 
L 240.164556 166.008854 
L 240.164556 64.391821 
L 233.235782 64.391821 
z
" clip-path="url(#p362586a2bb)" style="fill: #1b9e77; stroke: #ffffff; stroke-width: 0.8; stroke-linejoin: miter"/>
   </g>
   <g id="patch_31">
    <path d="M 240.164556 166.008854 
L 247.093333 166.008854 
L 247.093333 73.357325 
L 240.164556 73.357325 
z
" clip-path="url(#p362586a2bb)" style="fill: #1b9e77; stroke: #ffffff; stroke-width: 0.8; stroke-linejoin: miter"/>
   </g>
   <g id="patch_32">
    <path d="M 247.093333 166.008854 
L 254.022107 166.008854 
L 254.022107 84.81591 
L 247.093333 84.81591 
z
" clip-path="url(#p362586a2bb)" style="fill: #1b9e77; stroke: #ffffff; stroke-width: 0.8; stroke-linejoin: miter"/>
   </g>
   <g id="patch_33">
    <path d="M 254.022107 166.008854 
L 260.95088 166.008854 
L 260.95088 94.188936 
L 254.022107 94.188936 
z
" clip-path="url(#p362586a2bb)" style="fill: #1b9e77; stroke: #ffffff; stroke-width: 0.8; stroke-linejoin: miter"/>
   </g>
   <g id="patch_34">
    <path d="M 260.95088 166.008854 
L 267.879658 166.008854 
L 267.879658 103.070538 
L 260.95088 103.070538 
z
" clip-path="url(#p362586a2bb)" style="fill: #1b9e77; stroke: #ffffff; stroke-width: 0.8; stroke-linejoin: miter"/>
   </g>
   <g id="patch_35">
    <path d="M 267.879658 166.008854 
L 274.808435 166.008854 
L 274.808435 112.779172 
L 267.879658 112.779172 
z
" clip-path="url(#p362586a2bb)" style="fill: #1b9e77; stroke: #ffffff; stroke-width: 0.8; stroke-linejoin: miter"/>
   </g>
   <g id="patch_36">
    <path d="M 274.808435 166.008854 
L 281.737204 166.008854 
L 281.737204 118.520451 
L 274.808435 118.520451 
z
" clip-path="url(#p362586a2bb)" style="fill: #1b9e77; stroke: #ffffff; stroke-width: 0.8; stroke-linejoin: miter"/>
   </g>
   <g id="patch_37">
    <path d="M 281.737204 166.008854 
L 288.665982 166.008854 
L 288.665982 126.419203 
L 281.737204 126.419203 
z
" clip-path="url(#p362586a2bb)" style="fill: #1b9e77; stroke: #ffffff; stroke-width: 0.8; stroke-linejoin: miter"/>
   </g>
   <g id="patch_38">
    <path d="M 288.665982 166.008854 
L 295.59476 166.008854 
L 295.59476 133.083401 
L 288.665982 133.083401 
z
" clip-path="url(#p362586a2bb)" style="fill: #1b9e77; stroke: #ffffff; stroke-width: 0.8; stroke-linejoin: miter"/>
   </g>
   <g id="patch_39">
    <path d="M 295.59476 166.008854 
L 302.523529 166.008854 
L 302.523529 137.662041 
L 295.59476 137.662041 
z
" clip-path="url(#p362586a2bb)" style="fill: #1b9e77; stroke: #ffffff; stroke-width: 0.8; stroke-linejoin: miter"/>
   </g>
   <g id="patch_40">
    <path d="M 302.523529 166.008854 
L 309.452306 166.008854 
L 309.452306 143.187572 
L 302.523529 143.187572 
z
" clip-path="url(#p362586a2bb)" style="fill: #1b9e77; stroke: #ffffff; stroke-width: 0.8; stroke-linejoin: miter"/>
   </g>
   <g id="patch_41">
    <path d="M 309.452306 166.008854 
L 316.381084 166.008854 
L 316.381084 147.262801 
L 309.452306 147.262801 
z
" clip-path="url(#p362586a2bb)" style="fill: #1b9e77; stroke: #ffffff; stroke-width: 0.8; stroke-linejoin: miter"/>
   </g>
   <g id="patch_42">
    <path d="M 316.381084 166.008854 
L 323.309853 166.008854 
L 323.309853 150.163405 
L 316.381084 150.163405 
z
" clip-path="url(#p362586a2bb)" style="fill: #1b9e77; stroke: #ffffff; stroke-width: 0.8; stroke-linejoin: miter"/>
   </g>
   <g id="patch_43">
    <path d="M 323.309853 166.008854 
L 330.238631 166.008854 
L 330.238631 153.435574 
L 323.309853 153.435574 
z
" clip-path="url(#p362586a2bb)" style="fill: #1b9e77; stroke: #ffffff; stroke-width: 0.8; stroke-linejoin: miter"/>
   </g>
   <g id="patch_44">
    <path d="M 46.154364 166.008854 
L 53.08337 166.008854 
L 53.08337 116.506808 
L 46.154364 116.506808 
z
" clip-path="url(#p362586a2bb)" style="fill: #d95f02; stroke: #ffffff; stroke-width: 0.8; stroke-linejoin: miter"/>
   </g>
   <g id="patch_45">
    <path d="M 53.08337 166.008854 
L 60.012376 166.008854 
L 60.012376 166.008854 
L 53.08337 166.008854 
z
" clip-path="url(#p362586a2bb)" style="fill: #d95f02; stroke: #ffffff; stroke-width: 0.8; stroke-linejoin: miter"/>
   </g>
   <g id="patch_46">
    <path d="M 60.012376 166.008854 
L 66.941374 166.008854 
L 66.941374 166.008854 
L 60.012376 166.008854 
z
" clip-path="url(#p362586a2bb)" style="fill: #d95f02; stroke: #ffffff; stroke-width: 0.8; stroke-linejoin: miter"/>
   </g>
   <g id="patch_47">
    <path d="M 66.941374 166.008854 
L 73.87038 166.008854 
L 73.87038 166.008854 
L 66.941374 166.008854 
z
" clip-path="url(#p362586a2bb)" style="fill: #d95f02; stroke: #ffffff; stroke-width: 0.8; stroke-linejoin: miter"/>
   </g>
   <g id="patch_48">
    <path d="M 73.87038 166.008854 
L 80.799386 166.008854 
L 80.799386 166.008854 
L 73.87038 166.008854 
z
" clip-path="url(#p362586a2bb)" style="fill: #d95f02; stroke: #ffffff; stroke-width: 0.8; stroke-linejoin: miter"/>
   </g>
   <g id="patch_49">
    <path d="M 80.799386 166.008854 
L 87.728392 166.008854 
L 87.728392 166.008854 
L 80.799386 166.008854 
z
" clip-path="url(#p362586a2bb)" style="fill: #d95f02; stroke: #ffffff; stroke-width: 0.8; stroke-linejoin: miter"/>
   </g>
   <g id="patch_50">
    <path d="M 87.728392 166.008854 
L 94.65739 166.008854 
L 94.65739 166.008854 
L 87.728392 166.008854 
z
" clip-path="url(#p362586a2bb)" style="fill: #d95f02; stroke: #ffffff; stroke-width: 0.8; stroke-linejoin: miter"/>
   </g>
   <g id="patch_51">
    <path d="M 94.65739 166.008854 
L 101.586396 166.008854 
L 101.586396 166.008854 
L 94.65739 166.008854 
z
" clip-path="url(#p362586a2bb)" style="fill: #d95f02; stroke: #ffffff; stroke-width: 0.8; stroke-linejoin: miter"/>
   </g>
   <g id="patch_52">
    <path d="M 101.586396 166.008854 
L 108.515402 166.008854 
L 108.515402 166.008854 
L 101.586396 166.008854 
z
" clip-path="url(#p362586a2bb)" style="fill: #d95f02; stroke: #ffffff; stroke-width: 0.8; stroke-linejoin: miter"/>
   </g>
   <g id="patch_53">
    <path d="M 108.515402 166.008854 
L 115.444409 166.008854 
L 115.444409 166.008854 
L 108.515402 166.008854 
z
" clip-path="url(#p362586a2bb)" style="fill: #d95f02; stroke: #ffffff; stroke-width: 0.8; stroke-linejoin: miter"/>
   </g>
   <g id="patch_54">
    <path d="M 115.444409 166.008854 
L 122.373411 166.008854 
L 122.373411 166.008854 
L 115.444409 166.008854 
z
" clip-path="url(#p362586a2bb)" style="fill: #d95f02; stroke: #ffffff; stroke-width: 0.8; stroke-linejoin: miter"/>
   </g>
   <g id="patch_55">
    <path d="M 122.373411 166.008854 
L 129.302417 166.008854 
L 129.302417 166.008854 
L 122.373411 166.008854 
z
" clip-path="url(#p362586a2bb)" style="fill: #d95f02; stroke: #ffffff; stroke-width: 0.8; stroke-linejoin: miter"/>
   </g>
   <g id="patch_56">
    <path d="M 129.302417 166.008854 
L 136.231419 166.008854 
L 136.231419 166.008854 
L 129.302417 166.008854 
z
" clip-path="url(#p362586a2bb)" style="fill: #d95f02; stroke: #ffffff; stroke-width: 0.8; stroke-linejoin: miter"/>
   </g>
   <g id="patch_57">
    <path d="M 136.231419 166.008854 
L 143.160425 166.008854 
L 143.160425 166.008854 
L 136.231419 166.008854 
z
" clip-path="url(#p362586a2bb)" style="fill: #d95f02; stroke: #ffffff; stroke-width: 0.8; stroke-linejoin: miter"/>
   </g>
   <g id="patch_58">
    <path d="M 143.160425 166.008854 
L 150.089427 166.008854 
L 150.089427 166.008854 
L 143.160425 166.008854 
z
" clip-path="url(#p362586a2bb)" style="fill: #d95f02; stroke: #ffffff; stroke-width: 0.8; stroke-linejoin: miter"/>
   </g>
   <g id="patch_59">
    <path d="M 150.089427 166.008854 
L 157.018433 166.008854 
L 157.018433 166.008854 
L 150.089427 166.008854 
z
" clip-path="url(#p362586a2bb)" style="fill: #d95f02; stroke: #ffffff; stroke-width: 0.8; stroke-linejoin: miter"/>
   </g>
   <g id="patch_60">
    <path d="M 157.018433 166.008854 
L 163.947437 166.008854 
L 163.947437 166.008854 
L 157.018433 166.008854 
z
" clip-path="url(#p362586a2bb)" style="fill: #d95f02; stroke: #ffffff; stroke-width: 0.8; stroke-linejoin: miter"/>
   </g>
   <g id="patch_61">
    <path d="M 163.947437 166.008854 
L 170.876441 166.008854 
L 170.876441 166.008854 
L 163.947437 166.008854 
z
" clip-path="url(#p362586a2bb)" style="fill: #d95f02; stroke: #ffffff; stroke-width: 0.8; stroke-linejoin: miter"/>
   </g>
   <g id="patch_62">
    <path d="M 170.876441 166.008854 
L 177.805446 166.008854 
L 177.805446 166.008854 
L 170.876441 166.008854 
z
" clip-path="url(#p362586a2bb)" style="fill: #d95f02; stroke: #ffffff; stroke-width: 0.8; stroke-linejoin: miter"/>
   </g>
   <g id="patch_63">
    <path d="M 177.805446 166.008854 
L 184.73445 166.008854 
L 184.73445 166.008854 
L 177.805446 166.008854 
z
" clip-path="url(#p362586a2bb)" style="fill: #d95f02; stroke: #ffffff; stroke-width: 0.8; stroke-linejoin: miter"/>
   </g>
   <g id="patch_64">
    <path d="M 184.73445 166.008854 
L 191.663454 166.008854 
L 191.663454 166.008854 
L 184.73445 166.008854 
z
" clip-path="url(#p362586a2bb)" style="fill: #d95f02; stroke: #ffffff; stroke-width: 0.8; stroke-linejoin: miter"/>
   </g>
   <g id="patch_65">
    <path d="M 191.663454 166.008854 
L 198.592459 166.008854 
L 198.592459 166.008854 
L 191.663454 166.008854 
z
" clip-path="url(#p362586a2bb)" style="fill: #d95f02; stroke: #ffffff; stroke-width: 0.8; stroke-linejoin: miter"/>
   </g>
   <g id="patch_66">
    <path d="M 198.592459 166.008854 
L 205.521464 166.008854 
L 205.521464 166.008854 
L 198.592459 166.008854 
z
" clip-path="url(#p362586a2bb)" style="fill: #d95f02; stroke: #ffffff; stroke-width: 0.8; stroke-linejoin: miter"/>
   </g>
   <g id="patch_67">
    <path d="M 205.521464 166.008854 
L 212.450468 166.008854 
L 212.450468 166.008854 
L 205.521464 166.008854 
z
" clip-path="url(#p362586a2bb)" style="fill: #d95f02; stroke: #ffffff; stroke-width: 0.8; stroke-linejoin: miter"/>
   </g>
   <g id="patch_68">
    <path d="M 212.450468 166.008854 
L 219.379472 166.008854 
L 219.379472 166.008854 
L 212.450468 166.008854 
z
" clip-path="url(#p362586a2bb)" style="fill: #d95f02; stroke: #ffffff; stroke-width: 0.8; stroke-linejoin: miter"/>
   </g>
   <g id="patch_69">
    <path d="M 219.379472 166.008854 
L 226.308478 166.008854 
L 226.308478 166.008854 
L 219.379472 166.008854 
z
" clip-path="url(#p362586a2bb)" style="fill: #d95f02; stroke: #ffffff; stroke-width: 0.8; stroke-linejoin: miter"/>
   </g>
   <g id="patch_70">
    <path d="M 226.308478 166.008854 
L 233.23748 166.008854 
L 233.23748 166.008854 
L 226.308478 166.008854 
z
" clip-path="url(#p362586a2bb)" style="fill: #d95f02; stroke: #ffffff; stroke-width: 0.8; stroke-linejoin: miter"/>
   </g>
   <g id="patch_71">
    <path d="M 233.23748 166.008854 
L 240.166486 166.008854 
L 240.166486 166.008854 
L 233.23748 166.008854 
z
" clip-path="url(#p362586a2bb)" style="fill: #d95f02; stroke: #ffffff; stroke-width: 0.8; stroke-linejoin: miter"/>
   </g>
   <g id="patch_72">
    <path d="M 240.166486 166.008854 
L 247.095488 166.008854 
L 247.095488 166.008854 
L 240.166486 166.008854 
z
" clip-path="url(#p362586a2bb)" style="fill: #d95f02; stroke: #ffffff; stroke-width: 0.8; stroke-linejoin: miter"/>
   </g>
   <g id="patch_73">
    <path d="M 247.095488 166.008854 
L 254.024494 166.008854 
L 254.024494 166.008854 
L 247.095488 166.008854 
z
" clip-path="url(#p362586a2bb)" style="fill: #d95f02; stroke: #ffffff; stroke-width: 0.8; stroke-linejoin: miter"/>
   </g>
   <g id="patch_74">
    <path d="M 254.024494 166.008854 
L 260.953496 166.008854 
L 260.953496 166.008854 
L 254.024494 166.008854 
z
" clip-path="url(#p362586a2bb)" style="fill: #d95f02; stroke: #ffffff; stroke-width: 0.8; stroke-linejoin: miter"/>
   </g>
   <g id="patch_75">
    <path d="M 260.953496 166.008854 
L 267.882502 166.008854 
L 267.882502 166.008854 
L 260.953496 166.008854 
z
" clip-path="url(#p362586a2bb)" style="fill: #d95f02; stroke: #ffffff; stroke-width: 0.8; stroke-linejoin: miter"/>
   </g>
   <g id="patch_76">
    <path d="M 267.882502 166.008854 
L 274.811509 166.008854 
L 274.811509 166.008854 
L 267.882502 166.008854 
z
" clip-path="url(#p362586a2bb)" style="fill: #d95f02; stroke: #ffffff; stroke-width: 0.8; stroke-linejoin: miter"/>
   </g>
   <g id="patch_77">
    <path d="M 274.811509 166.008854 
L 281.740515 166.008854 
L 281.740515 166.008854 
L 274.811509 166.008854 
z
" clip-path="url(#p362586a2bb)" style="fill: #d95f02; stroke: #ffffff; stroke-width: 0.8; stroke-linejoin: miter"/>
   </g>
   <g id="patch_78">
    <path d="M 281.740515 166.008854 
L 288.669512 166.008854 
L 288.669512 166.008854 
L 281.740515 166.008854 
z
" clip-path="url(#p362586a2bb)" style="fill: #d95f02; stroke: #ffffff; stroke-width: 0.8; stroke-linejoin: miter"/>
   </g>
   <g id="patch_79">
    <path d="M 288.669512 166.008854 
L 295.598519 166.008854 
L 295.598519 166.008854 
L 288.669512 166.008854 
z
" clip-path="url(#p362586a2bb)" style="fill: #d95f02; stroke: #ffffff; stroke-width: 0.8; stroke-linejoin: miter"/>
   </g>
   <g id="patch_80">
    <path d="M 295.598519 166.008854 
L 302.527525 166.008854 
L 302.527525 166.008854 
L 295.598519 166.008854 
z
" clip-path="url(#p362586a2bb)" style="fill: #d95f02; stroke: #ffffff; stroke-width: 0.8; stroke-linejoin: miter"/>
   </g>
   <g id="patch_81">
    <path d="M 302.527525 166.008854 
L 309.456531 166.008854 
L 309.456531 166.008854 
L 302.527525 166.008854 
z
" clip-path="url(#p362586a2bb)" style="fill: #d95f02; stroke: #ffffff; stroke-width: 0.8; stroke-linejoin: miter"/>
   </g>
   <g id="patch_82">
    <path d="M 309.456531 166.008854 
L 316.385529 166.008854 
L 316.385529 166.008854 
L 309.456531 166.008854 
z
" clip-path="url(#p362586a2bb)" style="fill: #d95f02; stroke: #ffffff; stroke-width: 0.8; stroke-linejoin: miter"/>
   </g>
   <g id="patch_83">
    <path d="M 316.385529 166.008854 
L 323.314535 166.008854 
L 323.314535 166.008854 
L 316.385529 166.008854 
z
" clip-path="url(#p362586a2bb)" style="fill: #d95f02; stroke: #ffffff; stroke-width: 0.8; stroke-linejoin: miter"/>
   </g>
   <g id="patch_84">
    <path d="M 323.314535 166.008854 
L 330.243541 166.008854 
L 330.243541 117.321854 
L 323.314535 117.321854 
z
" clip-path="url(#p362586a2bb)" style="fill: #d95f02; stroke: #ffffff; stroke-width: 0.8; stroke-linejoin: miter"/>
   </g>
   <g id="patch_85">
    <path d="M 31.949905 166.008854 
L 31.949905 15.552 
" style="fill: none; stroke: #262626; stroke-linejoin: miter; stroke-linecap: square"/>
   </g>
   <g id="patch_86">
    <path d="M 31.949905 166.008854 
L 344.448 166.008854 
" style="fill: none; stroke: #262626; stroke-linejoin: miter; stroke-linecap: square"/>
   </g>
  </g>
 </g>
 <defs>
  <clipPath id="p362586a2bb">
   <rect x="31.949905" y="15.552" width="312.498095" height="150.456854"/>
  </clipPath>
 </defs>
</svg>
